<?xml version="1.0" encoding="UTF-8"?>
<!DOCTYPE svg PUBLIC "-//W3C//DTD SVG 1.0//EN" "http://www.w3.org/TR/2001/REC-SVG-20010904/DTD/svg10.dtd">
<!-- Creator: CorelDRAW 2018 (64 Bit) -->
<svg xmlns="http://www.w3.org/2000/svg" xml:space="preserve" width="8.5in" height="8.46457in" version="1.0" style="shape-rendering:geometricPrecision; text-rendering:geometricPrecision; image-rendering:optimizeQuality; fill-rule:evenodd; clip-rule:evenodd"
viewBox="0 0 8500 8464.57"
 xmlns:xlink="http://www.w3.org/1999/xlink">
 <defs>
  <style type="text/css">
   <![CDATA[
    .str0 {stroke:red;stroke-width:7.87;stroke-miterlimit:2.61313}
    .fil0 {fill:red}
   ]]>
  </style>
 </defs>
 <g id="Capa_x0020_1">
  <metadata id="CorelCorpID_0Corel-Layer"/>
  <g id="_2639966691712">
   <path class="fil0 str0" d="M6333.11 6411.41l0 578.83c39.3,-17.87 74.14,-44.67 104.51,-79.48 54.49,-61.63 81.29,-137.56 81.29,-231.36 0,-77.72 -16.97,-136.68 -52.7,-180.45 -18.76,-22.34 -56.27,-53.61 -133.09,-87.54z"/>
   <path class="fil0 str0" d="M3795.32 6240.8c0,-322.49 63.43,-635.13 187.59,-929.91 120.59,-284.05 292.1,-539.52 511.85,-759.28 196.52,-196.52 422.52,-355.51 671.73,-472.53 -59.84,-217.07 -259.05,-376.07 -494.86,-376.07l-570.8 -0c-100.94,0 -194.73,49.13 -253.68,131.31l-842.37 1190.73 -205.45 -431.44 326.94 -687.81c44.67,-93.8 -24.12,-202.77 -127.74,-202.77l-654.77 -0c-104.51,0 -173.3,108.98 -127.74,202.77l326.94 687.81 -200.98 424.3 -814.69 -1180.9c-58.06,-83.96 -153.64,-133.99 -255.48,-133.99l-599.39 0c-284.06,0 -513.63,229.57 -513.63,513.63l0 3413.2 4083.15 0c-102.72,-142.93 -188.48,-296.57 -258.15,-460.04 -125.07,-293.89 -188.49,-607.42 -188.49,-929z"/>
   <path class="fil0 str0" d="M2662.66 65.61c-912.93,0 -1655.23,742.31 -1655.23,1655.23 0,912.93 742.31,1655.23 1655.23,1655.23 912.93,0 1655.23,-742.31 1655.23,-1655.23 0,-912.93 -742.31,-1655.23 -1655.23,-1655.23z"/>
   <path class="fil0 str0" d="M6175 4069.25c-359.99,0 -699.43,87.54 -997.78,242.98 -693.18,360.88 -1166.61,1086.22 -1166.61,1921.43 0,528.81 190.27,1013.86 505.59,1389.93 397.51,473.43 993.32,775.37 1659.7,775.37 1195.2,0 2165.29,-969.2 2165.29,-2165.29 0,-1196.09 -970.99,-2164.41 -2166.19,-2164.41zm614.57 3113.95c-117.02,122.37 -264.41,196.52 -438.6,221.52l0 192.94c0,49.13 -40.2,89.33 -89.33,89.33l-159.89 0c-49.13,0 -89.33,-40.2 -89.33,-89.33l0 -194.73c-110.76,-19.66 -205.45,-49.13 -282.28,-88.43 -98.26,-50.91 -184.02,-132.21 -254.58,-242.96 -69.68,-109.88 -109.87,-243.87 -121.49,-398.42 -3.56,-45.56 27.7,-85.76 72.36,-93.8l272.45 -50.91c24.12,-4.46 48.23,0.89 68.78,15.18 19.64,14.31 33.04,35.73 36.63,59.86 18.76,129.52 50.02,223.32 93.8,278.69 34.84,43.77 72.35,76.82 114.34,98.26l0 -672.63c-97.36,-25.91 -196.52,-67 -295.67,-122.39 -100.94,-56.27 -179.56,-134.89 -234.04,-234.92 -53.59,-98.26 -81.29,-209.92 -81.29,-333.2 0,-218.85 79.49,-398.4 234.93,-535.07 90.22,-79.5 216.17,-132.2 376.07,-158.99l-0 -50.92c0,-49.13 40.2,-89.33 89.33,-89.33l159.9 0c49.13,0 89.33,40.2 89.33,89.33l0 50.93c138.46,24.11 253.68,73.24 343.01,148.28 134.89,112.55 217.96,267.09 244.76,460.93 7.15,48.24 -26.8,93.8 -75.04,100.95l-279.59 41.96c-49.13,7.15 -94.69,-25.91 -101.82,-75.04 -13.4,-88.43 -39.3,-155.43 -78.62,-198.3 -15.18,-16.97 -32.16,-31.26 -52.69,-43.77l0 583.31c104.51,27.69 175.98,49.13 217.07,67 94.69,41.98 173.3,93.8 234.04,154.53 61.63,61.63 109.87,135.79 142.93,220.65 32.16,83.07 49.13,174.19 49.13,270.65 -0.01,208.13 -68.79,386.78 -204.57,528.82z"/>
   <path class="fil0 str0" d="M5902.55 5420.77c-46.45,51.82 -68.78,111.66 -68.78,183.12 0,71.46 18.77,128.63 57.17,174.19 23.22,28.57 58.06,53.59 104.51,76.82l0 -502.02c-36.62,16.07 -67.89,38.4 -92.9,67.89z"/>
  </g>
 </g>
</svg>
