<?xml version="1.0" encoding="UTF-8"?>
<!DOCTYPE svg PUBLIC "-//W3C//DTD SVG 1.0//EN" "http://www.w3.org/TR/2001/REC-SVG-20010904/DTD/svg10.dtd">
<!-- Creator: CorelDRAW 2018 (64 Bit) -->
<svg xmlns="http://www.w3.org/2000/svg" xml:space="preserve" width="0.334646in" height="0.334646in" version="1.0" style="shape-rendering:geometricPrecision; text-rendering:geometricPrecision; image-rendering:optimizeQuality; fill-rule:evenodd; clip-rule:evenodd"
viewBox="0 0 334.65 334.65"
 xmlns:xlink="http://www.w3.org/1999/xlink">
 <defs>
  <style type="text/css">
   <![CDATA[
    .str0 {stroke:white;stroke-width:7.87;stroke-miterlimit:2.61313}
    .fil0 {fill:white}
   ]]>
  </style>
 </defs>
 <g id="Capa_x0020_1">
  <metadata id="CorelCorpID_0Corel-Layer"/>
  <path class="fil0 str0" d="M230.76 17.44l-37.86 -0.06c-42.53,0 -70.02,28.96 -70.02,73.8l0 34.03 -38.06 0c-3.29,0 -5.96,2.74 -5.96,6.11l0 49.31c0,3.38 2.67,6.11 5.96,6.11l38.06 0 0 124.41c0,3.38 2.66,6.11 5.95,6.11l49.67 0c3.29,0 5.95,-2.74 5.95,-6.11l0 -124.41 44.51 0c3.29,0 5.95,-2.74 5.95,-6.11l0.02 -49.31c0,-1.62 -0.63,-3.17 -1.74,-4.32 -1.11,-1.15 -2.63,-1.79 -4.21,-1.79l-44.52 0 0 -28.85c0,-13.86 3.22,-20.9 20.8,-20.9l25.5 -0.01c3.29,0 5.95,-2.74 5.95,-6.12l0 -45.78c0,-3.37 -2.66,-6.11 -5.94,-6.11z"/>
 </g>
</svg>
