<?xml version="1.0" encoding="UTF-8"?>
<!DOCTYPE svg PUBLIC "-//W3C//DTD SVG 1.0//EN" "http://www.w3.org/TR/2001/REC-SVG-20010904/DTD/svg10.dtd">
<!-- Creator: CorelDRAW 2018 (64 Bit) -->
<svg xmlns="http://www.w3.org/2000/svg" xml:space="preserve" width="1.37795in" height="0.354331in" version="1.0" style="shape-rendering:geometricPrecision; text-rendering:geometricPrecision; image-rendering:optimizeQuality; fill-rule:evenodd; clip-rule:evenodd"
viewBox="0 0 1377.95 354.33"
 xmlns:xlink="http://www.w3.org/1999/xlink"
 xmlns:dc="http://purl.org/dc/elements/1.1/"
 xmlns:cc="http://creativecommons.org/ns#"
 xmlns:rdf="http://www.w3.org/1999/02/22-rdf-syntax-ns#"
 xmlns:svg="http://www.w3.org/2000/svg"
 xmlns:sodipodi="http://sodipodi.sourceforge.net/DTD/sodipodi-0.dtd"
 xmlns:inkscape="http://www.inkscape.org/namespaces/inkscape"
 inkscape:version="0.91 r13725"
 sodipodi:docname="Drawing.svg">
 <defs>
  <style type="text/css">
   <![CDATA[
    .str0 {stroke:black;stroke-width:3;stroke-miterlimit:2.61313}
    .fil1 {fill:red}
    .fil0 {fill:black;fill-rule:nonzero}
   ]]>
  </style>
 </defs>
 <g id="Capa_x0020_1">
  <metadata id="CorelCorpID_0Corel-Layer"/>
  <path class="fil0 str0" d="M168.12 180.96l-12.28 9.19c-6.69,-8.76 -14.74,-15.38 -24.17,-19.87 -9.4,-4.49 -19.76,-6.73 -31.02,-6.73 -12.39,0 -23.82,2.96 -34.32,8.87 -10.5,5.91 -18.65,13.85 -24.46,23.86 -5.8,9.97 -8.72,21.22 -8.72,33.72 0,18.87 6.48,34.04 19.41,45.54 12.92,11.5 29.23,17.27 48.92,17.27 21.72,0 39.81,-8.47 54.37,-25.46l12.28 9.3c-7.72,9.79 -17.34,17.37 -28.87,22.75 -11.54,5.34 -24.43,8.01 -38.6,8.01 -27.13,0 -48.53,-9.01 -64.16,-27.02 -13.07,-15.2 -19.62,-32.47 -19.62,-51.74 0,-22.57 7.94,-41.66 23.85,-57.15 15.88,-15.52 35.75,-23.25 59.6,-23.25 14.46,0 27.52,2.85 39.17,8.58 11.64,5.73 21.19,13.78 28.63,24.14zm82.54 5.23c17.59,0 32.19,6.37 43.79,19.09 10.5,11.68 15.74,25.49 15.74,41.41 0,15.92 -5.56,29.87 -16.67,41.77 -11.15,11.93 -25.42,17.91 -42.87,17.91 -17.56,0 -31.83,-5.98 -42.94,-17.91 -11.11,-11.89 -16.63,-25.85 -16.63,-41.77 0,-15.84 5.23,-29.62 15.74,-41.3 11.61,-12.78 26.2,-19.19 43.83,-19.19zm0 14.39c-12.18,0 -22.65,4.52 -31.41,13.56 -8.76,9.04 -13.14,19.98 -13.14,32.76 0,8.26 1.99,16.02 5.98,23.22 3.99,7.19 9.4,12.71 16.24,16.59 6.8,3.85 14.24,5.77 22.33,5.77 8.19,0 15.67,-1.92 22.46,-5.77 6.76,-3.88 12.14,-9.4 16.13,-16.59 3.95,-7.19 5.94,-14.95 5.94,-23.22 0,-12.78 -4.38,-23.71 -13.17,-32.76 -8.76,-9.04 -19.23,-13.56 -31.37,-13.56zm86.56 62.27l-0.22 -12.21c-0.21,-5.98 0.04,-11.04 0.75,-15.2 1.53,-13.14 4.84,-22.79 10,-28.91 5.02,-5.34 10.11,-9.47 15.35,-12.39 8.62,-3.7 18.44,-5.45 29.52,-5.24 8.61,0 16.59,2.17 23.93,6.52 7.33,4.34 12.57,10.18 15.7,17.52 3.13,7.33 4.7,18.83 4.7,34.5l0 58.82 -14.6 0 0 -54.55c0,-13.21 -0.57,-22.04 -1.67,-26.49 -1.74,-7.59 -5.2,-12.96 -10.33,-16.13 -5.16,-3.17 -12.78,-4.74 -22.86,-4.74 -8.9,0 -16.8,2.57 -23.78,7.69 -6.94,5.16 -10.18,12.18 -9.69,21.08 -1.31,5.7 -1.99,16.09 -1.99,31.19l0 41.94 -14.81 0 0 -43.4zm172.33 27.24c-7.23,3.88 -14.31,4.2 -21.26,0.93 -8.51,-6.44 -12.54,-15.67 -12.11,-27.63l0 -48.39 27.09 0 0 -12.64 -27.2 0 0 -55.3 -14.81 0 0 118.81c-0.15,8.37 1.78,15.98 5.73,22.96 6.55,11.04 15.45,16.87 26.7,17.52 5.98,0.22 12.78,-1.14 20.43,-4.06 -1.17,-2.92 -2.7,-7.01 -4.59,-12.21zm82.11 -103.89c17.59,0 32.19,6.37 43.79,19.09 10.72,11.61 16.06,25.42 16.06,41.41 0.14,39.52 0.14,59.57 0,60.21 -6.66,0 -11.85,0 -15.52,0 0,-0.5 0,-9.15 0,-25.99 -8.15,15.17 -22.93,23.64 -44.33,25.46 -17.56,0 -31.83,-5.98 -42.94,-17.91 -11.11,-11.89 -16.63,-25.85 -16.63,-41.77 0,-15.84 5.23,-29.62 15.74,-41.3 11.61,-12.78 26.2,-19.19 43.83,-19.19zm0 14.39c-12.18,0 -22.65,4.52 -31.41,13.56 -8.76,9.04 -13.14,19.98 -13.14,32.76 0,8.26 2.24,16.24 6.73,23.89 4.45,7.65 12.07,14.1 22.79,19.41 26.85,5.98 45.93,-6.23 57.25,-36.64 0.64,-9.72 -0.43,-19.05 -3.13,-27.95 -1.93,-4.02 -4.63,-7.83 -8.01,-11.47 -8.58,-9.04 -18.94,-13.56 -31.08,-13.56zm164.6 -51.95c23.36,0 42.91,7.83 58.68,23.46 15.74,15.67 23.61,34.93 23.61,57.79 0,22.61 -7.87,41.19 -23.57,55.72 -15.7,14.53 -34.86,21.79 -57.46,21.79 -22.97,0 -42.33,-7.83 -58.11,-23.5 -15.77,-15.7 -23.68,-33.43 -23.68,-53.26 0,-14.81 3.6,-28.59 10.76,-41.3 7.16,-12.74 16.95,-22.68 29.41,-29.91 12.43,-7.19 25.89,-10.79 40.37,-10.79zm0.61 15.24c-11.39,0 -22.22,2.96 -32.47,8.9 -10.26,5.94 -18.26,13.99 -23.96,24.1 -5.7,10.11 -8.55,21.36 -8.55,33.76 0,18.37 6.34,33.25 19.05,44.65 12.67,11.39 27.98,17.09 45.93,17.09 11.96,0 23.07,-2.92 33.29,-8.76 10.22,-5.84 18.19,-13.78 23.89,-23.82 5.7,-10.04 8.54,-20.01 8.54,-29.91 0,-12.21 -2.85,-23.32 -8.54,-33.26 -5.7,-9.93 -13.74,-17.91 -24.11,-23.85 -10.36,-5.94 -21.4,-8.9 -33.07,-8.9zm110.06 98.98l-0.22 -12.21c-0.21,-5.98 0.04,-11.04 0.75,-15.2 1.53,-13.14 4.84,-22.79 10.01,-28.91 5.02,-5.34 10.11,-9.47 15.34,-12.39 8.62,-3.7 18.44,-5.45 29.52,-5.24 8.61,0 16.59,2.17 23.93,6.52 7.33,4.34 12.57,10.18 15.7,17.52 3.13,7.33 4.7,18.83 4.7,34.5l0 58.82 -14.6 0 0 -54.55c0,-13.21 -0.57,-22.04 -1.67,-26.49 -1.74,-7.59 -5.2,-12.96 -10.33,-16.13 -5.16,-3.17 -12.78,-4.74 -22.86,-4.74 -8.9,0 -16.8,2.57 -23.78,7.69 -6.94,5.16 -10.18,12.18 -9.69,21.08 -1.31,5.7 -1.99,16.09 -1.99,31.19l0 41.94 -14.81 0 0 -43.4zm128.85 -115.25l14.81 0 0 158.65 -14.81 0 0 -158.65zm43.04 44.22l14.74 0 0 114.43 -14.74 0 0 -114.43zm45.08 71.03l-0.22 -12.21c-0.21,-5.98 0.04,-11.04 0.75,-15.2 1.53,-13.14 4.84,-22.79 10.01,-28.91 5.02,-5.34 10.11,-9.47 15.34,-12.39 8.62,-3.7 18.44,-5.45 29.52,-5.24 8.61,0 16.59,2.17 23.93,6.52 7.33,4.34 12.57,10.18 15.7,17.52 3.13,7.33 4.7,18.83 4.7,34.5l0 58.82 -14.6 0 0 -54.55c0,-13.21 -0.57,-22.04 -1.67,-26.49 -1.74,-7.59 -5.2,-12.96 -10.33,-16.13 -5.16,-3.17 -12.78,-4.74 -22.86,-4.74 -8.9,0 -16.8,2.57 -23.78,7.69 -6.94,5.16 -10.18,12.18 -9.69,21.08 -1.31,5.7 -1.99,16.09 -1.99,31.19l0 41.94 -14.81 0 0 -43.4zm227.41 2.7l12.32 6.59c-3.99,8.01 -8.62,14.42 -14,19.3 -5.34,4.88 -11.35,8.58 -18.05,11.11 -6.66,2.53 -14.2,3.81 -22.61,3.81 -18.66,0 -33.22,-6.09 -43.72,-18.3 -10.5,-12.21 -15.74,-25.99 -15.74,-41.37 0,-14.53 4.45,-27.45 13.35,-38.81 11.25,-14.46 26.39,-21.69 45.36,-21.69 19.41,0 34.96,7.41 46.64,22.22 8.26,10.43 12.43,23.43 12.5,39.02l-102.76 0c0.29,13.35 4.52,24.28 12.75,32.79 8.19,8.51 18.33,12.78 30.37,12.78 5.84,0 11.5,-1.03 16.98,-3.1 5.48,-2.03 10.18,-4.74 14.03,-8.08 3.85,-3.31 8.05,-8.76 12.57,-16.27zm0 -30.76c-1.96,-7.87 -4.8,-14.13 -8.54,-18.83 -3.78,-4.7 -8.72,-8.48 -14.92,-11.36 -6.2,-2.89 -12.71,-4.34 -19.51,-4.34 -11.18,0 -20.83,3.63 -28.87,10.86 -5.88,5.3 -10.29,13.17 -13.28,23.68l85.13 0z"/>
  <g id="_2911305441872">
   <sodipodi:namedview pagecolor="#ffffff" bordercolor="#666666" borderopacity="1" objecttolerance="10" gridtolerance="10" guidetolerance="10" inkscape:pageopacity="0" inkscape:pageshadow="2" inkscape:window-width="1920" inkscape:window-height="1057" id="namedview7" showgrid="false" fit-margin-top="0.2" fit-margin-bottom="0.2" fit-margin-right="0.2" fit-margin-left="0.2" inkscape:zoom="8.3564321" inkscape:cx="16.19989" inkscape:cy="14.320857" inkscape:window-x="-8" inkscape:window-y="-8" inkscape:window-maximized="1" inkscape:current-layer="layer1"/>
   <g id="layer1">
    <path id="path26127" class="fil1" d="M1034.68 166.33c-3.04,-2.62 -5.09,-6.24 -5.85,-10.32 -0.83,-4.47 -0.09,-8.63 2.2,-12.52 4.43,-7.49 13.5,-10.65 21.87,-7.63 1.12,0.4 1.67,0.7 3.39,1.83 2.77,1.82 4.35,3.44 5.73,5.87 3.4,5.96 3.34,12.75 -0.16,18.5 -3.49,5.73 -9.57,8.93 -16.39,8.64 -3.8,-0.16 -7.79,-1.78 -10.8,-4.38zm6.78 -43.98c-0.44,-0.77 -2.41,-10.49 -2.29,-11.35 0.07,-0.57 0.22,-0.85 1.12,-2.13 0.85,-1.21 1.13,-1.52 1.61,-1.79 0.67,-0.37 4.49,-1.1 7.03,-1.35 5.59,-0.54 11.9,0.31 17.15,2.31 2.89,1.1 4.49,1.93 7.54,3.96 3.05,2.02 4.44,3.17 6.57,5.41 3.87,4.06 7.1,9.55 8.78,14.91 0.86,2.75 1.6,6.38 1.45,7.11 -0.17,0.81 -1.68,3.34 -2.29,3.82 -0.58,0.46 -10.61,2.54 -11.59,2.39 -0.89,-0.13 -2.06,-0.9 -2.53,-1.65 -0.2,-0.32 -0.42,-1.12 -0.54,-1.94 -0.26,-1.91 -1.03,-4.38 -1.94,-6.3 -4.05,-8.54 -13.05,-13.54 -22.48,-12.5 -0.94,0.11 -2.32,0.35 -3.07,0.55 -0.8,0.21 -1.62,0.32 -1.99,0.26 -0.88,-0.14 -2.1,-0.96 -2.53,-1.71l0 -0zm-5.96 -29.12c-0.42,-0.74 -2.46,-11.13 -2.31,-11.7 0.07,-0.27 0.57,-1.09 1.13,-1.89 0.81,-1.15 1.1,-1.47 1.57,-1.73 1.11,-0.61 8.28,-1.78 12.65,-2.07 6.96,-0.44 15.39,0.45 22.19,2.36 15.31,4.29 28.76,13.85 37.71,26.79 3.32,4.8 6.43,10.87 8.25,16.09 1.44,4.13 3.14,11.2 3.01,12.46 -0.06,0.53 -0.24,0.93 -0.99,2.12 -0.52,0.83 -1.09,1.6 -1.31,1.78 -0.51,0.4 -11.06,2.55 -11.81,2.41 -0.7,-0.14 -1.86,-0.92 -2.3,-1.55 -0.23,-0.33 -0.46,-1.2 -0.7,-2.63 -1.24,-7.51 -4.87,-15.64 -9.88,-22.13 -3.64,-4.72 -7.34,-8.15 -12.45,-11.54 -5.11,-3.39 -9.71,-5.47 -15.47,-7 -7.93,-2.1 -16.83,-2.29 -24.23,-0.52 -1.41,0.33 -2.29,0.46 -2.69,0.38 -0.81,-0.17 -2.02,-1 -2.38,-1.63l0 0zm-5.89 -29.48c-0.49,-0.78 -2.43,-10.7 -2.23,-11.41 0.09,-0.31 0.54,-1.09 1.14,-1.93 0.81,-1.15 1.1,-1.48 1.57,-1.73 0.85,-0.47 7.1,-1.61 11.53,-2.1 18.2,-2.02 36.37,1.01 52.74,8.8 5.01,2.39 6.32,3.14 12.19,7.04 5.87,3.9 7.07,4.81 11.22,8.5 13.53,12.06 23.38,27.63 28.58,45.19 1.26,4.27 2.64,10.48 2.54,11.44 -0.06,0.53 -0.24,0.92 -0.99,2.12 -0.55,0.88 -1.09,1.6 -1.34,1.8 -0.61,0.48 -10.48,2.52 -11.42,2.35 -0.91,-0.16 -2.04,-0.93 -2.52,-1.7 -0.24,-0.37 -0.61,-1.74 -1.05,-3.78 -1.86,-8.7 -4.59,-15.92 -8.87,-23.47 -5.3,-9.34 -11.72,-16.82 -20.59,-23.96 -3.31,-2.67 -9.75,-6.73 -14.16,-8.93 -8.42,-4.19 -17.36,-6.85 -26.78,-7.96 -8.62,-1.02 -16.33,-0.73 -25.07,0.94 -2.06,0.39 -3.46,0.57 -3.9,0.5 -0.88,-0.14 -2.11,-0.95 -2.58,-1.7l-0 -0z" inkscape:connector-curvature="0"/>
   </g>
  </g>
 </g>
</svg>
