<?xml version="1.0" encoding="UTF-8"?>
<!DOCTYPE svg PUBLIC "-//W3C//DTD SVG 1.0//EN" "http://www.w3.org/TR/2001/REC-SVG-20010904/DTD/svg10.dtd">
<!-- Creator: CorelDRAW 2018 (64 Bit) -->
<svg xmlns="http://www.w3.org/2000/svg" xml:space="preserve" width="8.5in" height="11in" version="1.0" style="shape-rendering:geometricPrecision; text-rendering:geometricPrecision; image-rendering:optimizeQuality; fill-rule:evenodd; clip-rule:evenodd"
viewBox="0 0 8500 11000"
 xmlns:xlink="http://www.w3.org/1999/xlink"
 data-name="Line Color">
 <defs>
  <style type="text/css">
   <![CDATA[
    .str0 {stroke:white;stroke-width:694.44;stroke-linecap:round;stroke-linejoin:round;stroke-miterlimit:2.61313}
    .fil0 {fill:none}
   ]]>
  </style>
 </defs>
 <g id="Capa_x0020_1">
  <metadata id="CorelCorpID_0Corel-Layer"/>
  <g id="_2588304390624">
   <path id="secondary" class="fil0 str0" d="M5638.89 3763.89l-2777.78 0 0 -1041.67c0.01,-191.73 155.5,-347.22 347.23,-347.22l2083.33 0c191.73,0 347.22,155.49 347.22,347.22l0 1041.67zm0 0l-3125 0m2777.78 0l0 694.44"/>
   <path class="fil0 str0" d="M7375 4111.11l0 4166.67c-0,191.73 -155.49,347.22 -347.22,347.22l-5555.56 0c-191.72,-0 -347.21,-155.49 -347.21,-347.22l-0.01 -4166.67c0.01,-191.73 155.5,-347.22 347.23,-347.22l5555.55 -0c191.73,0 347.22,155.49 347.22,347.22z"/>
  </g>
 </g>
</svg>
