<?xml version="1.0" encoding="UTF-8"?>
<!DOCTYPE svg PUBLIC "-//W3C//DTD SVG 1.0//EN" "http://www.w3.org/TR/2001/REC-SVG-20010904/DTD/svg10.dtd">
<!-- Creator: CorelDRAW 2018 (64 Bit) -->
<svg xmlns="http://www.w3.org/2000/svg" xml:space="preserve" width="0.334646in" height="0.334646in" version="1.0" style="shape-rendering:geometricPrecision; text-rendering:geometricPrecision; image-rendering:optimizeQuality; fill-rule:evenodd; clip-rule:evenodd"
viewBox="0 0 334.65 334.65"
 xmlns:xlink="http://www.w3.org/1999/xlink">
 <defs>
  <style type="text/css">
   <![CDATA[
    .fil0 {fill:white}
   ]]>
  </style>
 </defs>
 <g id="Capa_x0020_1">
  <metadata id="CorelCorpID_0Corel-Layer"/>
  <path class="fil0" d="M166.91 15.51c-82.68,0 -149.94,67.27 -149.94,149.94 0,25.81 6.67,51.2 19.31,73.6l-19.07 68.06c-0.63,2.24 -0.02,4.63 1.6,6.3 1.24,1.28 2.94,1.98 4.68,1.98 0.52,0 1.05,-0.06 1.56,-0.19l71.04 -17.59c21.69,11.65 46.11,17.78 70.82,17.78 82.68,0 149.94,-67.26 149.94,-149.94 0,-82.68 -67.27,-149.94 -149.94,-149.94zm75.43 202.85c-3.21,8.88 -18.59,16.98 -25.98,18.07 -6.64,0.97 -15.04,1.39 -24.26,-1.5 -5.58,-1.76 -12.76,-4.09 -21.94,-8.01 -38.61,-16.47 -63.83,-54.86 -65.76,-57.4 -1.92,-2.54 -15.72,-20.61 -15.72,-39.31 0,-18.7 9.94,-27.9 13.48,-31.71 3.54,-3.81 7.7,-4.76 10.27,-4.76 2.57,0 5.13,0.04 7.38,0.14 2.36,0.12 5.54,-0.89 8.66,6.52 3.21,7.61 10.91,26.32 11.86,28.23 0.97,1.9 1.61,4.13 0.33,6.66 -1.28,2.54 -1.92,4.12 -3.85,6.34 -1.93,2.22 -4.04,4.95 -5.78,6.66 -1.93,1.9 -3.93,3.95 -1.69,7.76 2.24,3.81 9.97,16.25 21.42,26.33 14.7,12.95 27.11,16.96 30.95,18.87 3.85,1.9 6.1,1.58 8.34,-0.95 2.24,-2.54 9.62,-11.1 12.19,-14.9 2.56,-3.8 5.13,-3.18 8.66,-1.91 3.54,1.26 22.46,10.46 26.31,12.36 3.85,1.91 6.42,2.85 7.38,4.44 0.97,1.57 0.97,9.19 -2.24,18.06z"/>
 </g>
</svg>
